# Blender v2.79 (sub 0) OBJ File: 'Fence set .blend'
# www.blender.org
mtllib Fence.mtl
o fence__Cylinder
v -3.850000 -0.092456 1.907544
v -3.850000 5.587619 1.907544
v -3.784624 -0.092456 1.934624
v -3.784624 5.587619 1.934624
v -3.757544 -0.092456 2.000000
v -3.757544 5.587619 2.000000
v -3.784624 -0.092456 2.065376
v -3.784624 5.587619 2.065376
v -3.850000 -0.092456 2.092456
v -3.850000 5.587619 2.092456
v -3.915376 -0.092456 2.065376
v -3.915376 5.587619 2.065376
v -3.942456 -0.092456 2.000000
v -3.942456 5.587619 2.000000
v -3.915376 -0.092456 1.934624
v -3.915376 5.587619 1.934624
v -3.767473 5.598426 1.917473
v -3.850000 5.598426 1.883290
v -3.732338 5.598426 2.000000
v -3.767473 5.598426 2.082527
v -3.850000 5.598426 2.116710
v -3.932526 5.598426 2.082527
v -3.967661 5.598426 2.000000
v -3.932526 5.598426 1.917473
v -3.767473 5.807148 1.917473
v -3.850000 5.807148 1.883290
v -3.732338 5.807148 2.000000
v -3.767473 5.807148 2.082527
v -3.850000 5.807148 2.116710
v -3.932526 5.807148 2.082527
v -3.967661 5.807148 2.000000
v -3.932526 5.807148 1.917473
v 3.865133 5.434459 1.960801
v -3.853895 5.434459 1.960800
v 3.865133 5.465106 1.975560
v -3.853895 5.465107 1.975559
v 3.865133 5.472676 2.008723
v -3.853895 5.472676 2.008722
v 3.865133 5.451467 2.035318
v -3.853895 5.451467 2.035318
v 3.865133 5.417450 2.035318
v -3.853895 5.417451 2.035318
v 3.865133 5.396242 2.008723
v -3.853895 5.396242 2.008722
v 3.865133 5.403811 1.975560
v -3.853895 5.403811 1.975559
v 3.850000 -0.092456 1.907544
v 3.850000 5.587619 1.907544
v 3.915376 -0.092456 1.934624
v 3.915376 5.587619 1.934624
v 3.942456 -0.092456 2.000000
v 3.942456 5.587619 2.000000
v 3.915376 -0.092456 2.065376
v 3.915376 5.587619 2.065376
v 3.850000 -0.092456 2.092456
v 3.850000 5.587619 2.092456
v 3.784624 -0.092456 2.065376
v 3.784624 5.587619 2.065376
v 3.757544 -0.092456 2.000000
v 3.757544 5.587619 2.000000
v 3.784624 -0.092456 1.934624
v 3.784624 5.587619 1.934624
v 3.932527 5.598426 1.917473
v 3.850000 5.598426 1.883290
v 3.967661 5.598426 2.000000
v 3.932527 5.598426 2.082527
v 3.850000 5.598426 2.116710
v 3.767473 5.598426 2.082527
v 3.732339 5.598426 2.000000
v 3.767473 5.598426 1.917473
v 3.932527 5.807148 1.917473
v 3.850000 5.807148 1.883290
v 3.967662 5.807148 2.000000
v 3.932527 5.807148 2.082527
v 3.850000 5.807148 2.116710
v 3.767474 5.807148 2.082527
v 3.732339 5.807148 2.000000
v 3.767474 5.807148 1.917473
v 3.865133 0.497198 1.960801
v -3.853895 0.497199 1.960800
v 3.865133 0.527846 1.975560
v -3.853895 0.527846 1.975559
v 3.865133 0.535416 2.008723
v -3.853895 0.535416 2.008722
v 3.865133 0.514206 2.035318
v -3.853895 0.514207 2.035318
v 3.865133 0.480190 2.035318
v -3.853895 0.480191 2.035318
v 3.865133 0.458981 2.008723
v -3.853895 0.458981 2.008722
v 3.865133 0.466551 1.975560
v -3.853895 0.466551 1.975559
v 3.865667 0.502318 2.000001
v -3.865667 0.502318 2.000000
v 3.865667 5.426846 2.000000
v -3.865667 5.426846 1.999999
vt 0.391024 0.406886
vt 0.454389 0.433062
vt 0.454389 0.470079
vt 0.391024 0.496255
vt 0.301411 0.496255
vt 0.238046 0.470079
vt 0.238046 0.433062
vt 0.301411 0.406886
vt 0.240479 0.368818
vt 0.395218 0.395295
vt 0.304574 0.395295
vt 0.459313 0.331374
vt 0.304574 0.304897
vt 0.395218 0.304897
vt 0.460205 0.368970
vt 0.239588 0.331222
vt 0.391024 0.406886
vt 0.454389 0.433062
vt 0.454389 0.470079
vt 0.391024 0.496255
vt 0.301411 0.496255
vt 0.238046 0.470079
vt 0.238046 0.433062
vt 0.301411 0.406886
vt 0.240479 0.368818
vt 0.395218 0.395295
vt 0.304574 0.395295
vt 0.459313 0.331374
vt 0.304574 0.304897
vt 0.395218 0.304897
vt 0.460205 0.368970
vt 0.239588 0.331222
vt 0.979665 0.006835
vt 0.975708 0.979203
vt 0.948195 0.984581
vt 0.950346 0.006837
vt 0.917105 0.986147
vt 0.924005 0.006824
vt 0.885606 0.987580
vt 0.897674 0.006783
vt 0.855466 0.987928
vt 0.871320 0.006714
vt 0.826693 0.988213
vt 0.844966 0.006614
vt 0.796809 0.986041
vt 0.818613 0.006482
vt 0.951051 0.990072
vt 0.918055 0.992603
vt 0.766217 0.984665
vt 0.792285 0.006320
vt 0.738914 0.978420
vt 0.765946 0.006128
vt 0.166432 0.070853
vt 0.166433 0.099055
vt 0.015460 0.099055
vt 0.015460 0.070853
vt 0.854892 0.993277
vt 0.826303 0.993088
vt 0.763804 0.990087
vt 0.732099 0.982771
vt 0.981515 0.983098
vt 0.885313 0.993277
vt 0.795887 0.992213
vt 0.166432 0.127142
vt 0.166432 0.155229
vt 0.015461 0.155229
vt 0.015460 0.127142
vt 0.166432 0.183432
vt 0.166432 0.211635
vt 0.015460 0.211635
vt 0.015461 0.183432
vt 0.166432 0.042650
vt 0.015460 0.042650
vt 0.166432 0.239721
vt 0.015461 0.239721
vt 0.166432 0.014563
vt 0.015460 0.014563
vt 0.610745 0.984533
vt 0.610745 0.006684
vt 0.629020 0.006545
vt 0.629020 0.984393
vt 0.647295 0.006405
vt 0.647295 0.984254
vt 0.665570 0.006266
vt 0.665570 0.984114
vt 0.683844 0.006126
vt 0.683844 0.983975
vt 0.702119 0.005987
vt 0.702119 0.983835
vt 0.574195 0.984812
vt 0.574195 0.006963
vt 0.592470 0.006824
vt 0.592470 0.984673
vt 0.979665 0.006835
vt 0.975708 0.979203
vt 0.948195 0.984581
vt 0.950346 0.006837
vt 0.917105 0.986147
vt 0.924005 0.006824
vt 0.885606 0.987580
vt 0.897674 0.006783
vt 0.855466 0.987928
vt 0.871320 0.006714
vt 0.826693 0.988213
vt 0.844966 0.006614
vt 0.796809 0.986041
vt 0.818613 0.006482
vt 0.951051 0.990072
vt 0.918055 0.992603
vt 0.766217 0.984665
vt 0.792285 0.006320
vt 0.738914 0.978420
vt 0.765946 0.006128
vt 0.166432 0.070853
vt 0.166433 0.099055
vt 0.015460 0.099055
vt 0.015460 0.070853
vt 0.854892 0.993277
vt 0.826303 0.993088
vt 0.763804 0.990087
vt 0.732099 0.982771
vt 0.981515 0.983098
vt 0.885313 0.993277
vt 0.795887 0.992213
vt 0.166432 0.127142
vt 0.166432 0.155229
vt 0.015461 0.155229
vt 0.015460 0.127142
vt 0.166432 0.183432
vt 0.166432 0.211635
vt 0.015460 0.211635
vt 0.015461 0.183432
vt 0.166432 0.042650
vt 0.015460 0.042650
vt 0.166432 0.239721
vt 0.015461 0.239721
vt 0.166432 0.014563
vt 0.015460 0.014563
vt 0.610745 0.984533
vt 0.610745 0.006684
vt 0.629020 0.006545
vt 0.629020 0.984393
vt 0.647295 0.006405
vt 0.647295 0.984254
vt 0.665570 0.006266
vt 0.665570 0.984114
vt 0.683844 0.006126
vt 0.683844 0.983975
vt 0.702119 0.005987
vt 0.702119 0.983835
vt 0.574195 0.984812
vt 0.574195 0.006963
vt 0.592470 0.006824
vt 0.592470 0.984673
vt 0.000000 0.000000
vt 1.000000 0.000000
vt 1.000000 1.000000
vt 0.000000 1.000000
vn 0.0000 -1.0000 0.0000
vn 0.0000 1.0000 -0.0000
vn 0.0000 -0.6302 -0.7764
vn 0.0000 -0.6152 -0.7883
vn 0.5554 -0.6168 -0.5577
vn 0.5490 -0.6302 -0.5490
vn 0.7851 -0.6193 0.0000
vn 0.7764 -0.6302 0.0000
vn 0.5554 -0.6168 0.5577
vn 0.5490 -0.6302 0.5490
vn 0.0000 -0.6152 0.7883
vn 0.0000 -0.6302 0.7764
vn -0.5554 -0.6168 0.5577
vn -0.5490 -0.6302 0.5490
vn -0.7851 -0.6193 0.0000
vn -0.7764 -0.6302 0.0000
vn 0.6122 -0.4930 -0.6181
vn 0.8701 -0.4928 0.0000
vn -0.5554 -0.6168 -0.5577
vn -0.5490 -0.6302 -0.5490
vn -0.8701 -0.4928 0.0000
vn -0.6122 -0.4930 0.6181
vn -0.5458 0.6311 0.5512
vn -0.7777 0.6287 0.0000
vn 0.0000 -0.4912 0.8710
vn -0.6122 -0.4930 -0.6181
vn 0.0000 -0.4912 -0.8710
vn 0.6122 -0.4930 0.6181
vn 0.5458 0.6311 0.5512
vn 0.0000 0.6302 0.7764
vn 0.5458 0.6311 -0.5512
vn 0.7777 0.6287 0.0000
vn -0.5458 0.6311 -0.5512
vn 0.0000 0.6302 -0.7764
vn 0.0000 0.0000 -1.0000
vn 0.0000 0.7818 -0.6235
vn 0.0000 0.9749 0.2225
vn 0.0000 0.4339 0.9010
vn 0.0000 -0.4339 0.9010
vn 0.0000 -0.9749 0.2225
vn 0.0000 -0.7818 -0.6235
usemtl metal_baked_2
s off
f 1/1/1 3/2/1 5/3/1 7/4/1 9/5/1 11/6/1 13/7/1 15/8/1
f 32/9/2 25/10/2 26/11/2
f 28/12/2 30/13/2 29/14/2
f 27/15/2 31/16/2 28/12/2
f 31/16/2 27/15/2 25/10/2
f 28/12/2 31/16/2 30/13/2
f 25/10/2 32/9/2 31/16/2
f 47/17/1 49/18/1 51/19/1 53/20/1 55/21/1 57/22/1 59/23/1 61/24/1
f 78/25/2 71/26/2 72/27/2
f 74/28/2 76/29/2 75/30/2
f 73/31/2 77/32/2 74/28/2
f 77/32/2 73/31/2 71/26/2
f 74/28/2 77/32/2 76/29/2
f 71/26/2 78/25/2 77/32/2
s 1
f 1/33/3 2/34/4 4/35/5 3/36/6
f 3/36/6 4/35/5 6/37/7 5/38/8
f 5/38/8 6/37/7 8/39/9 7/40/10
f 7/40/10 8/39/9 10/41/11 9/42/12
f 9/42/12 10/41/11 12/43/13 11/44/14
f 11/44/14 12/43/13 14/45/15 13/46/16
f 6/37/7 4/35/5 17/47/17 19/48/18
f 13/46/16 14/45/15 16/49/19 15/50/20
f 15/50/20 16/49/19 2/51/4 1/52/3
f 23/53/21 22/54/22 30/55/23 31/56/24
f 12/43/13 10/41/11 21/57/25 22/58/22
f 2/51/4 16/49/19 24/59/26 18/60/27
f 4/35/5 2/34/4 18/61/27 17/47/17
f 8/39/9 6/37/7 19/48/18 20/62/28
f 14/45/15 12/43/13 22/58/22 23/63/21
f 10/41/11 8/39/9 20/62/28 21/57/25
f 16/49/19 14/45/15 23/63/21 24/59/26
f 21/64/25 20/65/28 28/66/29 29/67/30
f 19/68/18 17/69/17 25/70/31 27/71/32
f 24/72/26 23/53/21 31/56/24 32/73/33
f 22/54/22 21/64/25 29/67/30 30/55/23
f 20/65/28 19/68/18 27/71/32 28/66/29
f 17/69/17 18/74/27 26/75/34 25/70/31
f 18/76/27 24/72/26 32/73/33 26/77/34
f 33/78/35 34/79/35 36/80/36 35/81/36
f 35/81/36 36/80/36 38/82/37 37/83/37
f 37/83/37 38/82/37 40/84/38 39/85/38
f 39/85/38 40/84/38 42/86/39 41/87/39
f 41/87/39 42/86/39 44/88/40 43/89/40
f 43/90/40 44/91/40 46/92/41 45/93/41
f 45/93/41 46/92/41 34/79/35 33/78/35
f 47/94/3 48/95/4 50/96/5 49/97/6
f 49/97/6 50/96/5 52/98/7 51/99/8
f 51/99/8 52/98/7 54/100/9 53/101/10
f 53/101/10 54/100/9 56/102/11 55/103/12
f 55/103/12 56/102/11 58/104/13 57/105/14
f 57/105/14 58/104/13 60/106/15 59/107/16
f 52/98/7 50/96/5 63/108/17 65/109/18
f 59/107/16 60/106/15 62/110/19 61/111/20
f 61/111/20 62/110/19 48/112/4 47/113/3
f 69/114/21 68/115/22 76/116/23 77/117/24
f 58/104/13 56/102/11 67/118/25 68/119/22
f 48/112/4 62/110/19 70/120/26 64/121/27
f 50/96/5 48/95/4 64/122/27 63/108/17
f 54/100/9 52/98/7 65/109/18 66/123/28
f 60/106/15 58/104/13 68/119/22 69/124/21
f 56/102/11 54/100/9 66/123/28 67/118/25
f 62/110/19 60/106/15 69/124/21 70/120/26
f 67/125/25 66/126/28 74/127/29 75/128/30
f 65/129/18 63/130/17 71/131/31 73/132/32
f 70/133/26 69/114/21 77/117/24 78/134/33
f 68/115/22 67/125/25 75/128/30 76/116/23
f 66/126/28 65/129/18 73/132/32 74/127/29
f 63/130/17 64/135/27 72/136/34 71/131/31
f 64/137/27 70/133/26 78/134/33 72/138/34
f 79/139/35 80/140/35 82/141/36 81/142/36
f 81/142/36 82/141/36 84/143/37 83/144/37
f 83/144/37 84/143/37 86/145/38 85/146/38
f 85/146/38 86/145/38 88/147/39 87/148/39
f 87/148/39 88/147/39 90/149/40 89/150/40
f 89/151/40 90/152/40 92/153/41 91/154/41
f 91/154/41 92/153/41 80/140/35 79/139/35
usemtl fence
s off
f 93/155/35 94/156/35 96/157/35 95/158/35
o fence_with_barbwire_Cylinder.001
v 3.850000 -0.092456 -1.814838
v 3.850000 5.587619 -1.814838
v 3.784624 -0.092456 -1.841918
v 3.784624 5.587619 -1.841918
v 3.757544 -0.092456 -1.907294
v 3.757544 5.587619 -1.907294
v 3.784624 -0.092456 -1.972670
v 3.784624 5.587619 -1.972670
v 3.850000 -0.092456 -1.999750
v 3.850000 5.587619 -1.999750
v 3.915376 -0.092456 -1.972670
v 3.915376 5.587619 -1.972670
v 3.942456 -0.092456 -1.907294
v 3.942456 5.587619 -1.907294
v 3.915376 -0.092456 -1.841918
v 3.915376 5.587619 -1.841918
v 3.767473 5.598426 -1.824767
v 3.850000 5.598426 -1.790583
v 3.732338 5.598426 -1.907294
v 3.767473 5.598426 -1.989820
v 3.850000 5.598426 -2.024004
v 3.932526 5.598426 -1.989820
v 3.967661 5.598426 -1.907294
v 3.932526 5.598426 -1.824767
v 3.767473 5.807148 -1.824767
v 3.850000 5.807148 -1.790583
v 3.732338 5.807148 -1.907294
v 3.767473 5.807148 -1.989820
v 3.850000 5.807148 -2.024004
v 3.932526 5.807148 -1.989820
v 3.967661 5.807148 -1.907294
v 3.932526 5.807148 -1.824767
v 3.871615 6.459037 -3.035553
v 3.871222 6.472333 -2.994086
v 3.888578 5.689465 -1.893213
v 3.897721 5.780189 -1.824085
v 3.826079 6.459037 -3.035553
v 3.826473 6.472333 -2.994086
v 3.809117 5.689465 -1.893213
v 3.799973 5.780189 -1.824085
v 3.835061 5.952492 -2.168242
v 3.835061 5.979076 -2.017475
v 3.835061 5.828309 -1.990891
v 3.862633 5.952492 -2.168242
v 3.862633 5.979076 -2.017475
v 3.862633 5.828309 -1.990891
v 3.840042 6.449186 -2.851525
v 3.840042 6.432205 -2.947825
v 3.840042 6.352885 -2.834544
v 3.857653 6.432205 -2.947825
v 3.857653 6.449186 -2.851525
v 3.857653 6.352885 -2.834544
v 3.858959 5.620877 -1.957375
v 3.854642 6.419910 -3.048658
v 3.838736 5.620877 -1.957375
v 3.843053 6.419910 -3.048658
v -3.865133 5.174003 -1.868095
v 3.853895 5.174003 -1.868093
v -3.865133 5.204650 -1.882855
v 3.853895 5.204651 -1.882853
v -3.865133 5.212220 -1.916018
v 3.853895 5.212220 -1.916016
v -3.865133 5.191011 -1.942613
v 3.853895 5.191011 -1.942611
v -3.865133 5.156995 -1.942613
v 3.853895 5.156995 -1.942611
v -3.865133 5.135786 -1.916018
v 3.853895 5.135786 -1.916016
v -3.865133 5.143355 -1.882855
v 3.853895 5.143355 -1.882853
v -3.865133 5.143355 -1.882855
v -3.865133 5.135786 -1.916018
v -3.865133 5.156995 -1.942613
v -3.865133 5.191011 -1.942613
v -3.865133 5.212220 -1.916018
v -3.865133 5.204650 -1.882855
v -3.865133 5.174003 -1.868095
v -3.850000 -0.092456 -1.814839
v -3.850000 5.587619 -1.814839
v -3.915376 -0.092456 -1.841919
v -3.915376 5.587619 -1.841919
v -3.942456 -0.092456 -1.907295
v -3.942456 5.587619 -1.907295
v -3.915376 -0.092456 -1.972671
v -3.915376 5.587619 -1.972671
v -3.850000 -0.092456 -1.999751
v -3.850000 5.587619 -1.999751
v -3.784624 -0.092456 -1.972671
v -3.784624 5.587619 -1.972671
v -3.757544 -0.092456 -1.907295
v -3.757544 5.587619 -1.907295
v -3.784624 -0.092456 -1.841919
v -3.784624 5.587619 -1.841919
v -3.932527 5.598426 -1.824768
v -3.850000 5.598426 -1.790585
v -3.967661 5.598426 -1.907295
v -3.932527 5.598426 -1.989822
v -3.850000 5.598426 -2.024005
v -3.767473 5.598426 -1.989822
v -3.732339 5.598426 -1.907295
v -3.767473 5.598426 -1.824768
v -3.932527 5.807148 -1.824768
v -3.850000 5.807148 -1.790585
v -3.967662 5.807148 -1.907295
v -3.932527 5.807148 -1.989822
v -3.850000 5.807148 -2.024005
v -3.767474 5.807148 -1.989822
v -3.732339 5.807148 -1.907295
v -3.767474 5.807148 -1.824768
v -3.828385 6.459037 -3.035554
v -3.828778 6.472333 -2.994087
v -3.811423 5.689465 -1.893214
v -3.802279 5.780189 -1.824086
v -3.873921 6.459037 -3.035554
v -3.873528 6.472333 -2.994087
v -3.890883 5.689465 -1.893214
v -3.900026 5.780189 -1.824086
v -3.864938 5.970197 -2.173961
v -3.864938 5.996781 -2.023195
v -3.864938 5.846015 -1.996611
v -3.837367 5.970197 -2.173961
v -3.837367 5.996781 -2.023195
v -3.837367 5.846015 -1.996611
v -3.858896 6.439052 -2.859092
v -3.858896 6.424120 -2.943776
v -3.858896 6.354368 -2.844160
v -3.843409 6.424120 -2.943776
v -3.843409 6.439052 -2.859092
v -3.843409 6.354368 -2.844160
v -3.841042 5.620877 -1.957376
v -3.845358 6.419910 -3.048660
v -3.861264 5.620877 -1.957376
v -3.856947 6.419910 -3.048660
v -3.865133 0.694003 -1.868095
v 3.853895 0.694003 -1.868093
v -3.865133 0.724650 -1.882855
v 3.853895 0.724651 -1.882853
v -3.865133 0.732220 -1.916018
v 3.853895 0.732220 -1.916016
v -3.865133 0.711011 -1.942613
v 3.853895 0.711011 -1.942611
v -3.865133 0.676995 -1.942613
v 3.853895 0.676995 -1.942611
v -3.865133 0.655786 -1.916018
v 3.853895 0.655786 -1.916016
v -3.865133 0.663355 -1.882855
v 3.853895 0.663355 -1.882853
v -3.865133 0.663355 -1.882855
v -3.865133 0.655786 -1.916018
v -3.865133 0.676995 -1.942613
v -3.865133 0.711011 -1.942613
v -3.865133 0.732220 -1.916018
v -3.865133 0.724650 -1.882855
v -3.865133 0.694003 -1.868095
v -3.954657 5.859677 -1.928681
v 3.954657 5.852423 -1.895188
v -3.954657 6.448375 -2.918330
v 3.954657 6.466744 -2.918327
v -3.954657 6.213679 -2.490528
v 3.954657 6.213681 -2.490526
v -1.977328 5.910021 -1.927505
v 0.000000 5.847428 -1.917673
v 1.977328 5.797094 -2.046244
v 1.977329 6.353928 -2.859220
v 0.000000 6.316740 -2.933194
v -1.977328 6.279709 -2.981848
v 1.977329 6.092943 -2.452732
v 0.000000 6.069057 -2.425434
v -1.977328 6.131652 -2.554046
v -3.888686 0.260556 -1.907294
v 3.888686 0.260556 -1.907295
v -3.888686 5.554327 -1.907294
v 3.888686 5.554327 -1.907295
vt 0.391024 0.406886
vt 0.454389 0.433062
vt 0.454389 0.470079
vt 0.391024 0.496255
vt 0.301411 0.496255
vt 0.238046 0.470079
vt 0.238046 0.433062
vt 0.301411 0.406886
vt 0.240479 0.368818
vt 0.395218 0.395295
vt 0.304574 0.395295
vt 0.459313 0.331374
vt 0.304574 0.304897
vt 0.395218 0.304897
vt 0.460205 0.368970
vt 0.239588 0.331222
vt 0.317363 0.187246
vt 0.418424 0.183899
vt 0.418424 0.219675
vt 0.317363 0.216329
vt 0.330850 0.240930
vt 0.420845 0.241265
vt 0.420845 0.279469
vt 0.330850 0.279804
vt 0.245573 0.265313
vt 0.245573 0.255420
vt 0.342912 0.977748
vt 0.274853 0.977748
vt 0.291422 0.524554
vt 0.322584 0.524554
vt 0.416657 0.036940
vt 0.468033 0.036940
vt 0.468033 0.060609
vt 0.416657 0.060609
vt 0.209415 0.068268
vt 0.384540 0.049943
vt 0.388046 0.079566
vt 0.467944 0.066916
vt 0.467944 0.090799
vt 0.416568 0.090799
vt 0.416568 0.066916
vt 0.200489 0.139099
vt 0.199509 0.105254
vt 0.401538 0.121180
vt 0.466684 0.096809
vt 0.466684 0.122682
vt 0.415308 0.122682
vt 0.415308 0.096809
vt 0.500850 0.036940
vt 0.500850 0.052195
vt 0.468033 0.052195
vt 0.468033 0.036940
vt 0.399122 0.150415
vt 0.217672 0.150387
vt 0.399122 0.135131
vt 0.256219 0.178165
vt 0.244716 0.157074
vt 0.376061 0.155930
vt 0.469077 0.126560
vt 0.501893 0.126560
vt 0.501893 0.141678
vt 0.469077 0.141678
vt 0.500760 0.066916
vt 0.500760 0.083442
vt 0.467944 0.083442
vt 0.467944 0.066916
vt 0.234146 0.205488
vt 0.234146 0.198086
vt 0.077995 0.398519
vt 0.030581 0.382899
vt 0.030581 0.357848
vt 0.077995 0.342229
vt 0.137119 0.347803
vt 0.163432 0.370374
vt 0.137119 0.392944
vt 0.163432 0.427877
vt 0.137119 0.450447
vt 0.077995 0.456022
vt 0.030581 0.440402
vt 0.030581 0.415351
vt 0.077995 0.399732
vt 0.137119 0.405306
vt 0.391024 0.406886
vt 0.454389 0.433062
vt 0.454389 0.470079
vt 0.391024 0.496255
vt 0.301411 0.496255
vt 0.238046 0.470079
vt 0.238046 0.433062
vt 0.301411 0.406886
vt 0.240479 0.368818
vt 0.395218 0.395295
vt 0.304574 0.395295
vt 0.459313 0.331374
vt 0.304574 0.304897
vt 0.395218 0.304897
vt 0.460205 0.368970
vt 0.239588 0.331222
vt 0.317363 0.187246
vt 0.418424 0.183899
vt 0.418424 0.219675
vt 0.317363 0.216329
vt 0.330850 0.240930
vt 0.420845 0.241265
vt 0.420845 0.279469
vt 0.330850 0.279804
vt 0.245573 0.265313
vt 0.245573 0.255420
vt 0.342912 0.977748
vt 0.274853 0.977748
vt 0.291422 0.524554
vt 0.322584 0.524554
vt 0.416657 0.036940
vt 0.468033 0.036940
vt 0.468033 0.060609
vt 0.416657 0.060609
vt 0.209415 0.068268
vt 0.384540 0.049943
vt 0.388046 0.079566
vt 0.467944 0.066916
vt 0.467944 0.090799
vt 0.416568 0.090799
vt 0.416568 0.066916
vt 0.200489 0.139099
vt 0.199509 0.105254
vt 0.401538 0.121180
vt 0.466684 0.096809
vt 0.466684 0.122682
vt 0.415308 0.122682
vt 0.415308 0.096809
vt 0.500850 0.036940
vt 0.500850 0.052195
vt 0.468033 0.052195
vt 0.468033 0.036940
vt 0.399122 0.150415
vt 0.217672 0.150387
vt 0.399122 0.135131
vt 0.256219 0.178165
vt 0.244716 0.157074
vt 0.376061 0.155930
vt 0.469077 0.126560
vt 0.501893 0.126560
vt 0.501893 0.141678
vt 0.469077 0.141678
vt 0.500760 0.066916
vt 0.500760 0.083442
vt 0.467944 0.083442
vt 0.467944 0.066916
vt 0.234146 0.205488
vt 0.234146 0.198086
vt 0.077995 0.398519
vt 0.030581 0.382899
vt 0.030581 0.357848
vt 0.077995 0.342229
vt 0.137119 0.347803
vt 0.163432 0.370374
vt 0.137119 0.392944
vt 0.163432 0.427877
vt 0.137119 0.450447
vt 0.077995 0.456022
vt 0.030581 0.440402
vt 0.030581 0.415351
vt 0.077995 0.399732
vt 0.137119 0.405306
vt 0.979665 0.006835
vt 0.975708 0.979203
vt 0.948195 0.984581
vt 0.950346 0.006837
vt 0.917105 0.986147
vt 0.924005 0.006824
vt 0.885606 0.987580
vt 0.897674 0.006783
vt 0.855466 0.987928
vt 0.871320 0.006714
vt 0.826693 0.988213
vt 0.844966 0.006614
vt 0.796809 0.986041
vt 0.818613 0.006482
vt 0.951051 0.990072
vt 0.918055 0.992603
vt 0.766217 0.984665
vt 0.792285 0.006320
vt 0.738914 0.978420
vt 0.765946 0.006128
vt 0.166432 0.070853
vt 0.166433 0.099055
vt 0.015460 0.099055
vt 0.015460 0.070853
vt 0.854892 0.993277
vt 0.826303 0.993088
vt 0.763804 0.990087
vt 0.732099 0.982771
vt 0.981515 0.983098
vt 0.885313 0.993277
vt 0.795887 0.992213
vt 0.166432 0.127142
vt 0.166432 0.155229
vt 0.015461 0.155229
vt 0.015460 0.127142
vt 0.166432 0.183432
vt 0.166432 0.211635
vt 0.015460 0.211635
vt 0.015461 0.183432
vt 0.166432 0.042650
vt 0.015460 0.042650
vt 0.166432 0.239721
vt 0.015461 0.239721
vt 0.166432 0.014563
vt 0.015460 0.014563
vt 0.271105 0.523771
vt 0.195975 0.973118
vt 0.421790 0.973118
vt 0.346648 0.523773
vt 0.129319 0.966480
vt 0.101782 0.961932
vt 0.218095 0.523451
vt 0.236697 0.524307
vt 0.377301 0.525859
vt 0.488446 0.966479
vt 0.610745 0.984533
vt 0.610745 0.006684
vt 0.629020 0.006545
vt 0.629020 0.984393
vt 0.647295 0.006405
vt 0.647295 0.984254
vt 0.665570 0.006266
vt 0.665570 0.984114
vt 0.683844 0.006126
vt 0.683844 0.983975
vt 0.702119 0.005987
vt 0.702119 0.983835
vt 0.574195 0.984812
vt 0.574195 0.006963
vt 0.592470 0.006824
vt 0.592470 0.984673
vt 0.979665 0.006835
vt 0.975708 0.979203
vt 0.948195 0.984581
vt 0.950346 0.006837
vt 0.917105 0.986147
vt 0.924005 0.006824
vt 0.885606 0.987580
vt 0.897674 0.006783
vt 0.855466 0.987928
vt 0.871320 0.006714
vt 0.826693 0.988213
vt 0.844966 0.006614
vt 0.796809 0.986041
vt 0.818613 0.006482
vt 0.951051 0.990072
vt 0.918055 0.992603
vt 0.766217 0.984665
vt 0.792285 0.006320
vt 0.738914 0.978420
vt 0.765946 0.006128
vt 0.166432 0.070853
vt 0.166433 0.099055
vt 0.015460 0.099055
vt 0.015460 0.070853
vt 0.854892 0.993277
vt 0.826303 0.993088
vt 0.763804 0.990087
vt 0.732099 0.982771
vt 0.981515 0.983098
vt 0.885313 0.993277
vt 0.795887 0.992213
vt 0.166432 0.127142
vt 0.166432 0.155229
vt 0.015461 0.155229
vt 0.015460 0.127142
vt 0.166432 0.183432
vt 0.166432 0.211635
vt 0.015460 0.211635
vt 0.015461 0.183432
vt 0.166432 0.042650
vt 0.015460 0.042650
vt 0.166432 0.239721
vt 0.015461 0.239721
vt 0.166432 0.014563
vt 0.015460 0.014563
vt 0.271105 0.523771
vt 0.195975 0.973118
vt 0.421790 0.973118
vt 0.346648 0.523773
vt 0.129319 0.966480
vt 0.101782 0.961932
vt 0.218095 0.523451
vt 0.236697 0.524307
vt 0.377301 0.525859
vt 0.488446 0.966479
vt 0.610745 0.984533
vt 0.610745 0.006684
vt 0.629020 0.006545
vt 0.629020 0.984393
vt 0.647295 0.006405
vt 0.647295 0.984254
vt 0.665570 0.006266
vt 0.665570 0.984114
vt 0.683844 0.006126
vt 0.683844 0.983975
vt 0.702119 0.005987
vt 0.702119 0.983835
vt 0.574195 0.984812
vt 0.574195 0.006963
vt 0.592470 0.006824
vt 0.592470 0.984673
vt 0.750000 0.500000
vt 1.000000 0.500000
vt 1.000000 1.000000
vt 0.750000 1.000000
vt 0.750000 0.000000
vt 1.000000 0.000000
vt 0.000000 0.000000
vt 0.250000 0.000000
vt 0.250000 0.500000
vt 0.000000 0.500000
vt 0.500000 0.000000
vt 0.500000 0.500000
vt 0.250000 1.000000
vt 0.000000 1.000000
vt 0.500000 1.000000
vt 0.000000 0.000000
vt 1.000000 0.000000
vt 1.000000 1.000000
vt 0.000000 1.000000
vn 0.0000 -1.0000 -0.0000
vn 0.0000 1.0000 0.0000
vn 0.0000 -0.6061 0.7954
vn 0.0000 0.9523 -0.3053
vn 0.0000 0.3176 -0.9482
vn 0.0000 0.8607 0.5092
vn 0.0000 0.1736 0.9848
vn -1.0000 0.0000 0.0000
vn 0.0000 0.9848 -0.1737
vn 1.0000 -0.0000 0.0000
vn 0.0000 -0.8192 -0.5736
vn 0.0000 0.9848 -0.1736
vn 0.0000 -0.6832 0.7303
vn 0.0000 0.9522 -0.3053
vn 0.0000 -0.6302 0.7764
vn 0.0000 -0.6152 0.7883
vn -0.5554 -0.6168 0.5577
vn -0.5490 -0.6302 0.5490
vn -0.7851 -0.6193 0.0000
vn -0.7764 -0.6302 0.0000
vn -0.5554 -0.6168 -0.5577
vn -0.5490 -0.6302 -0.5490
vn 0.0000 -0.6152 -0.7883
vn 0.0000 -0.6302 -0.7764
vn 0.5554 -0.6168 -0.5577
vn 0.5490 -0.6302 -0.5490
vn 0.7851 -0.6193 0.0000
vn 0.7764 -0.6302 0.0000
vn -0.6122 -0.4930 0.6181
vn -0.8701 -0.4928 0.0000
vn 0.5554 -0.6168 0.5577
vn 0.5490 -0.6302 0.5490
vn 0.8701 -0.4928 0.0000
vn 0.6122 -0.4930 -0.6181
vn 0.5458 0.6311 -0.5512
vn 0.7777 0.6287 0.0000
vn 0.0000 -0.4912 -0.8710
vn 0.6122 -0.4930 0.6181
vn 0.0000 -0.4912 0.8710
vn -0.6122 -0.4930 -0.6181
vn -0.5458 0.6311 -0.5512
vn 0.0000 0.6302 -0.7764
vn -0.5458 0.6311 0.5512
vn -0.7777 0.6287 0.0000
vn 0.5458 0.6311 0.5512
vn 0.0000 0.6302 0.7764
vn 0.6677 0.4568 -0.5878
vn 0.6343 0.7705 0.0632
vn 0.5968 0.1547 0.7873
vn 0.7049 -0.5486 0.4495
vn -0.7049 -0.5486 0.4495
vn -0.5968 0.1547 0.7873
vn -0.6343 0.7705 0.0632
vn -0.6677 0.4568 -0.5878
vn 0.4686 -0.8828 0.0332
vn -0.4686 -0.8828 0.0332
vn -0.4624 -0.3020 -0.8336
vn 0.4624 -0.3020 -0.8336
vn 0.0000 0.0000 1.0000
vn 0.6212 0.0000 0.7836
vn 0.6212 0.6126 0.4886
vn 0.0000 0.7818 0.6235
vn 0.6212 0.7639 -0.1744
vn 0.0000 0.9749 -0.2225
vn 0.6212 0.3400 -0.7060
vn 0.0000 0.4339 -0.9010
vn 0.6212 -0.3400 -0.7060
vn 0.0000 -0.4339 -0.9010
vn 0.6212 -0.7639 -0.1744
vn 0.0000 -0.9749 -0.2225
vn 0.6212 -0.6126 0.4886
vn 0.0000 -0.7818 0.6235
vn -0.0213 0.8580 0.5132
vn -0.0449 0.8432 0.5356
vn -0.0374 0.8508 0.5242
vn -0.0284 0.8623 0.5055
vn -0.0139 0.8535 0.5208
vn -0.0529 0.8350 0.5477
vn 0.0141 0.8999 0.4359
vn 0.0154 0.9163 0.4001
vn 0.0224 0.9163 0.3997
vn 0.0423 0.9056 0.4219
vn 0.0210 0.9032 0.4286
vn 0.0032 0.9011 0.4337
vn 0.0298 0.9165 0.3988
vn 0.0708 0.9105 0.4073
vn -0.0153 0.8989 0.4378
usemtl metal_baked.001
s off
f 97/159/42 99/160/42 101/161/42 103/162/42 105/163/42 107/164/42 109/165/42 111/166/42
f 128/167/43 121/168/43 122/169/43
f 124/170/43 126/171/43 125/172/43
f 123/173/43 127/174/43 124/170/43
f 127/174/43 123/173/43 121/168/43
f 124/170/43 127/174/43 126/171/43
f 121/168/43 128/167/43 127/174/43
f 131/175/44 132/176/44 136/177/44 135/178/44
f 133/179/45 134/180/45 130/181/45 129/182/45
f 133/179/46 129/182/46 150/183/46 152/184/46
f 136/185/47 132/186/47 130/187/47 134/188/47
f 141/189/48 138/190/48 139/191/48 142/192/48
f 138/193/49 137/194/49 139/195/49
f 141/196/50 140/197/50 137/198/50 138/199/50
f 142/200/51 140/201/51 141/202/51
f 139/203/52 137/204/52 140/205/52 142/206/52
f 147/207/53 146/208/53 144/209/53 143/210/53
f 143/211/49 144/212/49 145/213/49
f 148/214/51 146/215/51 147/216/51
f 147/217/48 143/218/48 145/219/48 148/220/48
f 145/221/52 144/222/52 146/223/52 148/224/52
f 131/175/54 135/178/54 151/225/54 149/226/54
f 156/227/51 154/228/51 166/229/51 164/230/51 162/231/51 160/232/51 158/233/51
f 173/234/49 172/235/49 171/236/49 170/237/49 169/238/49 168/239/49 167/240/49
f 174/241/42 176/242/42 178/243/42 180/244/42 182/245/42 184/246/42 186/247/42 188/248/42
f 205/249/43 198/250/43 199/251/43
f 201/252/43 203/253/43 202/254/43
f 200/255/43 204/256/43 201/252/43
f 204/256/43 200/255/43 198/250/43
f 201/252/43 204/256/43 203/253/43
f 198/250/43 205/249/43 204/256/43
f 208/257/44 209/258/44 213/259/44 212/260/44
f 210/261/55 211/262/55 207/263/55 206/264/55
f 210/261/46 206/264/46 227/265/46 229/266/46
f 213/267/47 209/268/47 207/269/47 211/270/47
f 218/271/48 215/272/48 216/273/48 219/274/48
f 215/275/49 214/276/49 216/277/49
f 218/278/50 217/279/50 214/280/50 215/281/50
f 219/282/51 217/283/51 218/284/51
f 216/285/52 214/286/52 217/287/52 219/288/52
f 224/289/53 223/290/53 221/291/53 220/292/53
f 220/293/49 221/294/49 222/295/49
f 225/296/51 223/297/51 224/298/51
f 224/299/48 220/300/48 222/301/48 225/302/48
f 222/303/52 221/304/52 223/305/52 225/306/52
f 208/257/54 212/260/54 228/307/54 226/308/54
f 233/309/51 231/310/51 243/311/51 241/312/51 239/313/51 237/314/51 235/315/51
f 250/316/49 249/317/49 248/318/49 247/319/49 246/320/49 245/321/49 244/322/49
s 1
f 97/323/56 98/324/57 100/325/58 99/326/59
f 99/326/59 100/325/58 102/327/60 101/328/61
f 101/328/61 102/327/60 104/329/62 103/330/63
f 103/330/63 104/329/62 106/331/64 105/332/65
f 105/332/65 106/331/64 108/333/66 107/334/67
f 107/334/67 108/333/66 110/335/68 109/336/69
f 102/327/60 100/325/58 113/337/70 115/338/71
f 109/336/69 110/335/68 112/339/72 111/340/73
f 111/340/73 112/339/72 98/341/57 97/342/56
f 119/343/74 118/344/75 126/345/76 127/346/77
f 108/333/66 106/331/64 117/347/78 118/348/75
f 98/341/57 112/339/72 120/349/79 114/350/80
f 100/325/58 98/324/57 114/351/80 113/337/70
f 104/329/62 102/327/60 115/338/71 116/352/81
f 110/335/68 108/333/66 118/348/75 119/353/74
f 106/331/64 104/329/62 116/352/81 117/347/78
f 112/339/72 110/335/68 119/353/74 120/349/79
f 117/354/78 116/355/81 124/356/82 125/357/83
f 115/358/71 113/359/70 121/360/84 123/361/85
f 120/362/79 119/343/74 127/346/77 128/363/86
f 118/344/75 117/354/78 125/357/83 126/345/76
f 116/355/81 115/358/71 123/361/85 124/356/82
f 113/359/70 114/364/80 122/365/87 121/360/84
f 114/366/80 120/362/79 128/363/86 122/367/87
f 129/368/88 130/187/89 132/186/90 131/369/91
f 135/370/92 136/185/93 134/188/94 133/371/95
f 149/372/96 151/373/97 152/374/98 150/375/99
f 129/368/88 131/369/91 149/372/96 150/375/99
f 135/370/92 133/371/95 152/376/98 151/377/97
f 153/378/100 154/379/101 156/380/102 155/381/103
f 155/381/103 156/380/102 158/382/104 157/383/105
f 157/383/105 158/382/104 160/384/106 159/385/107
f 159/385/107 160/384/106 162/386/108 161/387/109
f 161/387/109 162/386/108 164/388/110 163/389/111
f 163/390/111 164/391/110 166/392/112 165/393/113
f 165/393/113 166/392/112 154/379/101 153/378/100
f 174/394/56 175/395/57 177/396/58 176/397/59
f 176/397/59 177/396/58 179/398/60 178/399/61
f 178/399/61 179/398/60 181/400/62 180/401/63
f 180/401/63 181/400/62 183/402/64 182/403/65
f 182/403/65 183/402/64 185/404/66 184/405/67
f 184/405/67 185/404/66 187/406/68 186/407/69
f 179/398/60 177/396/58 190/408/70 192/409/71
f 186/407/69 187/406/68 189/410/72 188/411/73
f 188/411/73 189/410/72 175/412/57 174/413/56
f 196/414/74 195/415/75 203/416/76 204/417/77
f 185/404/66 183/402/64 194/418/78 195/419/75
f 175/412/57 189/410/72 197/420/79 191/421/80
f 177/396/58 175/395/57 191/422/80 190/408/70
f 181/400/62 179/398/60 192/409/71 193/423/81
f 187/406/68 185/404/66 195/419/75 196/424/74
f 183/402/64 181/400/62 193/423/81 194/418/78
f 189/410/72 187/406/68 196/424/74 197/420/79
f 194/425/78 193/426/81 201/427/82 202/428/83
f 192/429/71 190/430/70 198/431/84 200/432/85
f 197/433/79 196/414/74 204/417/77 205/434/86
f 195/415/75 194/425/78 202/428/83 203/416/76
f 193/426/81 192/429/71 200/432/85 201/427/82
f 190/430/70 191/435/80 199/436/87 198/431/84
f 191/437/80 197/433/79 205/434/86 199/438/87
f 206/439/88 207/269/89 209/268/90 208/440/91
f 212/441/92 213/267/93 211/270/94 210/442/95
f 226/443/96 228/444/97 229/445/98 227/446/99
f 206/439/88 208/440/91 226/443/96 227/446/99
f 212/441/92 210/442/95 229/447/98 228/448/97
f 230/449/100 231/450/101 233/451/102 232/452/103
f 232/452/103 233/451/102 235/453/104 234/454/105
f 234/454/105 235/453/104 237/455/106 236/456/107
f 236/456/107 237/455/106 239/457/108 238/458/109
f 238/458/109 239/457/108 241/459/110 240/460/111
f 240/461/111 241/462/110 243/463/112 242/464/113
f 242/464/113 243/463/112 231/450/101 230/449/100
usemtl barbed_wire
f 263/465/114 256/466/115 254/467/116 260/468/117
f 259/469/118 252/470/119 256/466/115 263/465/114
f 251/471/120 257/472/121 265/473/122 255/474/123
f 257/472/121 258/475/124 264/476/125 265/473/122
f 258/475/124 259/469/118 263/465/114 264/476/125
f 255/474/123 265/473/122 262/477/126 253/478/127
f 265/473/122 264/476/125 261/479/128 262/477/126
f 264/476/125 263/465/114 260/468/117 261/479/128
usemtl fence_fence.png.001
s off
f 266/480/100 267/481/100 269/482/100 268/483/100
