# 3ds Max Wavefront OBJ Exporter v0.97b - (c)2007 guruware
# File Created: 13.12.2013 19:46:19

mtllib Folder.mtl

#
# object Folder1
#

v  5.1996 0.0000 15.0000
v  -5.1996 0.0000 15.0000
v  -5.1996 0.0000 -15.0000
v  5.1996 0.0000 -15.0000
v  5.1996 40.0000 15.0000
v  5.1996 40.0000 -15.0000
v  -5.1996 40.0000 -15.0000
v  -5.1996 40.0000 15.0000
# 8 vertices

vn 0.0000 -1.0000 -0.0000
vn 0.0000 1.0000 -0.0000
vn 1.0000 0.0000 -0.0000
vn -0.0000 0.0000 -1.0000
vn -1.0000 0.0000 0.0000
vn 0.0000 0.0000 1.0000
# 6 vertex normals

vt 0.5799 0.2514 0.0000
vt 0.2992 0.2514 0.0000
vt 0.2992 0.9204 0.0000
vt 0.5799 0.9204 0.0000
vt 0.9902 0.2032 0.0000
vt 0.2497 0.2032 0.0000
vt 0.2497 0.9878 0.0000
vt 0.9902 0.9878 0.0000
vt 0.2323 0.1911 0.0000
vt 0.2323 0.0061 0.0000
vt 0.9955 0.0061 0.0000
vt 0.9955 0.1911 0.0000
vt 0.0137 0.0066 0.0000
vt 0.2214 0.0066 0.0000
vt 0.2214 0.9953 0.0000
vt 0.0137 0.9953 0.0000
# 16 texture coords

g Folder1
usemtl Folder1
s 2
f 1/1/1 2/2/1 3/3/1 4/4/1 
s 4
f 5/1/2 6/4/2 7/3/2 8/2/2 
s 8
f 1/5/3 4/6/3 6/7/3 5/8/3 
s 16
f 4/9/4 3/10/4 7/11/4 6/12/4 
s 32
f 3/6/5 2/5/5 8/8/5 7/7/5 
s 64
f 2/13/6 1/14/6 5/15/6 8/16/6 
# 6 polygons

#
# object Folder2
#

v  36.0634 0.0000 15.2719
v  25.6643 0.0000 15.2719
v  25.6643 0.0000 -14.7281
v  36.0634 0.0000 -14.7281
v  36.0634 40.0000 15.2719
v  36.0634 40.0000 -14.7281
v  25.6643 40.0000 -14.7281
v  25.6643 40.0000 15.2719
# 8 vertices

vn 0.0000 -1.0000 -0.0000
vn 0.0000 1.0000 -0.0000
vn 1.0000 0.0000 -0.0000
vn -0.0000 0.0000 -1.0000
vn -1.0000 0.0000 0.0000
vn 0.0000 0.0000 1.0000
# 6 vertex normals

vt 0.9940 0.8290 0.0000
vt 0.9940 0.6789 0.0000
vt 0.5360 0.6789 0.0000
vt 0.5360 0.8290 0.0000
vt 0.5384 0.8459 0.0000
vt 0.9937 0.8459 0.0000
vt 0.9937 0.9910 0.0000
vt 0.5384 0.9910 0.0000
vt 0.5298 0.0108 0.0000
vt 0.0133 0.0108 0.0000
vt 0.0133 0.6617 0.0000
vt 0.5298 0.6617 0.0000
vt 0.0117 0.9889 0.0000
vt 0.0117 0.8448 0.0000
vt 0.5244 0.8448 0.0000
vt 0.5244 0.9889 0.0000
vt 0.5487 0.0112 0.0000
vt 0.9913 0.0112 0.0000
vt 0.9913 0.6628 0.0000
vt 0.5487 0.6628 0.0000
vt 0.0125 0.8325 0.0000
vt 0.0125 0.6744 0.0000
vt 0.5231 0.6744 0.0000
vt 0.5231 0.8325 0.0000
# 24 texture coords

g Folder2
usemtl Folder2
s 2
f 9/17/7 10/18/7 11/19/7 12/20/7 
s 4
f 13/21/8 14/22/8 15/23/8 16/24/8 
s 8
f 9/25/9 12/26/9 14/27/9 13/28/9 
s 16
f 12/29/10 11/30/10 15/31/10 14/32/10 
s 32
f 11/33/11 10/34/11 16/35/11 15/36/11 
s 64
f 10/37/12 9/38/12 13/39/12 16/40/12 
# 6 polygons

